<?xml version="1.0" encoding="UTF-8" standalone="no"?>
<!-- Created with Inkscape (http://www.inkscape.org/) -->

<svg
   width="98.620689mm"
   height="143mm"
   viewBox="0 0 98.62069 142.99999"
   version="1.1"
   id="svg1"
   inkscape:version="1.3.2 (091e20e, 2023-11-25)"
   sodipodi:docname="card.svg"
   xmlns:inkscape="http://www.inkscape.org/namespaces/inkscape"
   xmlns:sodipodi="http://sodipodi.sourceforge.net/DTD/sodipodi-0.dtd"
   xmlns="http://www.w3.org/2000/svg"
   xmlns:svg="http://www.w3.org/2000/svg">
  <sodipodi:namedview
     id="namedview1"
     pagecolor="#ffffff"
     bordercolor="#000000"
     borderopacity="0.25"
     inkscape:showpageshadow="2"
     inkscape:pageopacity="0.0"
     inkscape:pagecheckerboard="0"
     inkscape:deskcolor="#d1d1d1"
     inkscape:document-units="mm"
     shape-rendering="auto"
     showborder="true"
     borderlayer="true"
     inkscape:zoom="0.64411956"
     inkscape:cx="152.14567"
     inkscape:cy="-152.92192"
     inkscape:window-width="1392"
     inkscape:window-height="1212"
     inkscape:window-x="0"
     inkscape:window-y="25"
     inkscape:window-maximized="0"
     inkscape:current-layer="layer1"
     showguides="true">
    <sodipodi:guide
       position="-20.127604,83.617187"
       orientation="0,1"
       id="guide1"
       inkscape:locked="false"
       inkscape:label=""
       inkscape:color="rgb(0,134,229)" />
    <sodipodi:guide
       position="50.64834,124"
       orientation="0,1"
       id="guide2"
       inkscape:locked="false"
       inkscape:label=""
       inkscape:color="rgb(0,134,229)" />
  </sodipodi:namedview>
  <defs
     id="defs1" />
  <g
     inkscape:label="Layer 1"
     inkscape:groupmode="layer"
     id="layer1"
     transform="translate(-125.47409,-155.3902)">
    <path
       d="m 200.29543,298.25745 -0.1681,-0.16555 -10.14848,-0.0628 -10.14848,-0.0628 -1.32232,0.083 -1.32232,0.083 -0.79389,-0.0151 -0.79388,-0.0151 -8.73227,-0.10003 -8.73226,-0.10002 -8.20295,-0.0816 -8.20295,-0.0816 -6.61499,-0.0284 -6.61499,-0.0284 -1.05751,-0.35747 -1.05754,-0.35747 -0.40646,-0.79068 -0.40647,-0.79068 -0.072,-12.83212 -0.072,-12.83211 0.0888,-14.15629 0.0888,-14.1563 -0.0287,-12.59248 -0.0287,-12.59248 0.16731,-0.27538 0.1673,-0.27536 2.66043,-0.0102 2.66043,-0.0102 0.14187,0.22569 0.14188,0.22569 0.31088,-0.20512 0.31091,-0.20517 1.85163,-0.0648 1.85166,-0.0649 1.85168,-0.0589 1.85169,-0.0589 1.71978,-0.008 1.71978,-0.008 1.45505,-0.026 1.45504,-0.026 1.85356,0.18487 1.85354,0.18488 0.2646,0.1586 0.26459,0.15859 1.19196,0.013 1.19195,0.0129 1.18915,-0.19802 1.18916,-0.19802 0.44402,0.39387 0.44403,0.39385 0.49821,-0.27153 0.49823,-0.27154 2.28972,-0.20334 2.28973,-0.20335 0.77149,0.31271 0.7715,0.3127 2.87758,-0.0115 2.87757,-0.0115 2.20037,-0.0803 2.20036,-0.0803 0.29804,0.29353 0.29802,0.29353 0.41087,-0.37598 0.41086,-0.37598 1.98694,0.3289 1.98693,0.32889 0.29673,-0.2401 0.29674,-0.24008 0.73994,0.27489 0.73995,0.2749 0.20833,-0.34257 0.20831,-0.34258 3.24664,0.0286 3.24665,0.0286 0.0945,0.27672 0.0947,0.27672 0.34651,-0.003 0.3465,-0.003 0.14927,-0.39803 0.14927,-0.39801 0.41348,-0.003 0.41347,-0.003 0.12871,0.32975 0.12872,0.32977 1.99442,-0.10269 1.99442,-0.10268 0.83238,0.28309 0.8324,0.28308 0.26601,-0.27009 0.26601,-0.27004 0.59608,-0.005 0.59606,-0.005 0.66837,0.2984 0.66836,0.29841 0.34783,-0.29318 0.34782,-0.29316 1.83934,-0.17215 1.83935,-0.17214 0.95183,-0.2887 0.95183,-0.28871 0.63613,0.34274 0.63612,0.34275 1.05862,0.0338 1.05863,0.0337 1.45732,0.27234 1.45732,0.27233 1.65749,0.10797 1.6575,0.10795 0.14645,-0.24105 0.14646,-0.24105 2.20657,0.13532 2.20658,0.13531 0.17028,-0.28027 0.17029,-0.28028 0.77811,-0.006 0.77812,-0.006 0.002,0.24959 0.002,0.24957 1.27659,-0.0388 1.27659,-0.0388 0.29526,0.17938 0.29526,0.17939 0.0579,4.95538 0.058,4.9554 0.0274,0.92586 0.0274,0.92586 -0.13425,3.573 -0.13427,3.573 0.0155,16.00764 0.0155,16.00763 -0.0585,13.89148 -0.0585,13.89146 -0.56942,1.12816 -0.56942,1.12817 -0.93043,0.20285 -0.93042,0.20285 -7.40813,0.0565 -7.40811,0.0565 -1.85272,-0.0771 -1.85273,-0.0771 -0.92888,0.18552 -0.92887,0.18553 z m -68.93631,-4.52247 0.41259,-0.41892 -0.005,-0.58962 -0.005,-0.58964 -0.3199,-0.31508 -0.31992,-0.31507 -0.82018,0.007 -0.82019,0.007 -0.31508,0.31991 -0.31507,0.31991 0.004,0.52155 0.004,0.52154 0.44156,0.48051 0.44155,0.48051 0.60153,-0.005 0.60153,-0.005 z m -1.79125,-0.27615 -0.17772,-0.17505 -0.005,-0.5995 -0.005,-0.59952 0.49069,-0.15986 0.49069,-0.15986 0.41489,0.15559 0.41488,0.15561 0.16044,0.40874 0.16043,0.40874 -0.29878,0.36562 -0.29877,0.36562 -0.58495,0.005 -0.58494,0.005 z m 46.91921,-0.20857 -0.002,-0.23679 0.49572,-0.004 0.49571,-0.004 1.06107,-1.00029 1.06107,-1.0003 0.52689,-1.19467 0.52689,-1.19467 0.0604,-0.92653 0.0605,-0.92652 -0.21863,-0.98113 -0.21866,-0.98112 -0.37152,-0.30359 -0.37151,-0.30359 -0.001,-0.20419 -10e-4,-0.20421 -0.77384,-0.81586 -0.77384,-0.81586 -0.25832,0.002 -0.25832,0.002 -0.34247,-0.40632 -0.34247,-0.40632 -0.37725,0.14807 -0.37725,0.14806 -0.2942,-0.17874 -0.2942,-0.17875 -1.33641,0.0744 -1.33641,0.0744 -1.01876,0.53228 -1.01877,0.53231 -0.42744,0.43399 -0.42746,0.43401 -0.31234,0.55213 -0.31235,0.55215 -0.40594,0.89532 -0.40594,0.89533 0.009,1.15292 0.009,1.15292 0.45088,1.12644 0.45089,1.12643 0.81992,0.71319 0.81993,0.71319 0.28282,0.23463 0.28281,0.23462 0.91273,0.40797 0.91274,0.40797 0.51959,0.0819 0.51961,0.0819 1.00162,-0.10323 1.00165,-0.10323 z m -3.42291,-1.82824 -1.43067,-0.80414 0.79599,-0.80821 0.79599,-0.80819 0.61839,0.42614 0.61838,0.42616 0.338,-0.003 0.33799,-0.003 0.53114,-0.53929 0.53114,-0.5393 -0.27391,-0.50255 -0.27389,-0.50255 -0.59653,-0.0801 -0.59651,-0.0801 -0.0863,-0.5742 -0.0863,-0.57421 0.60766,-0.0912 0.60765,-0.0912 0.0814,-0.4458 0.0814,-0.4458 -0.52331,-0.27496 -0.5233,-0.27495 -0.93846,0.40052 -0.93846,0.40054 -0.1214,5e-4 -0.1214,4.9e-4 -0.42376,-0.83349 -0.42376,-0.8335 0.0668,-0.0677 0.0668,-0.0677 1.39462,-0.56195 1.39462,-0.56195 0.48565,-0.004 0.48567,-0.004 1.11367,1.18987 1.11365,1.18987 -0.5359,0.76487 -0.53589,0.76484 0.002,0.24377 0.002,0.24375 0.66616,0.61636 0.66617,0.61636 0.002,0.36976 0.002,0.36979 -0.68964,1.1976 -0.68965,1.19761 -0.55642,0.21276 -0.55643,0.21277 -0.52791,0.1673 -0.5279,0.1673 z m -36.80747,0.17786 -0.007,-0.92603 -0.24825,0.002 -0.24824,0.002 0.0552,0.71684 0.0552,0.71684 -0.46227,0.0994 -0.46228,0.0994 -0.049,-0.87896 -0.049,-0.87895 -0.10017,0.86069 -0.10017,0.86067 -0.38017,0.002 -0.3801,0.002 -0.0105,-0.85984 -0.0105,-0.85984 -0.25345,0.39882 -0.25346,0.39881 5.3e-4,0.59533 5.4e-4,0.59533 1.45516,-0.0111 1.45517,-0.0111 z m -4.76883,-0.8139 -0.39799,-0.1439 -0.31688,-0.246 -0.31689,-0.24599 0.15033,-0.40082 0.15031,-0.40083 0.55677,-0.22992 0.55678,-0.22992 -1.36813,-0.006 -1.36813,-0.006 -0.16691,0.7886 -0.16693,0.78857 0.16958,0.26977 0.16957,0.26975 1.37324,-0.0314 1.37325,-0.0313 z m -2.076,-0.91999 0.0801,-0.59593 0.26457,-0.002 0.26458,-0.002 0.0891,0.59466 0.089,0.59464 -0.43366,0.003 -0.43366,0.003 z m 6.8271,-0.59438 -0.007,-0.8731 -0.31992,-0.31508 -0.3199,-0.31507 -0.5869,0.005 -0.58688,0.005 -0.41727,0.16378 -0.41729,0.16379 0.006,0.85361 0.006,0.85361 0.17773,0.17504 0.17772,0.17504 1.1465,-0.009 1.1465,-0.009 z m -2.33535,-0.23358 0.0801,-0.59595 0.76435,-0.0931 0.76435,-0.0931 0.22578,0.35021 0.22576,0.35021 0.007,0.33069 0.007,0.33069 -1.0767,0.008 -1.07671,0.008 z m -2.76864,-1.16067 -0.72842,-0.10467 -0.72675,0.11576 -0.72675,0.11576 1.45517,-0.0111 1.45517,-0.0111 z m 0.0768,-0.87874 0.50967,-0.27777 -0.009,-0.71825 -0.01,-0.71823 -0.2288,-0.35504 -0.2288,-0.35504 -0.49673,0.0987 -0.49673,0.0987 -0.0801,0.59324 -0.08,0.59324 0.28297,-0.002 0.28298,-0.002 -0.003,-0.39687 -0.003,-0.39686 0.27287,-0.002 0.27288,-0.002 0.15664,0.39907 0.15662,0.39905 -0.32357,0.39598 -0.32358,0.39598 -0.63734,0.004 -0.63734,0.004 -0.16904,-0.43065 -0.16902,-0.43064 0.30481,-0.49646 0.30481,-0.49645 -0.39911,0.003 -0.39909,0.003 0.002,0.24294 0.002,0.24294 -0.14972,0.39921 -0.14971,0.3992 0.55379,0.54543 0.55379,0.54543 0.41427,-0.003 0.41424,-0.003 z m 4.87732,-0.0282 -0.16553,-0.26334 -1.17497,0.009 -1.17498,0.009 0.002,0.26458 0.002,0.26457 1.3385,-0.0102 1.3385,-0.0102 z m -0.93696,-1.50743 1.05866,0.11412 -0.002,-0.22986 -0.002,-0.22986 -1.1722,0.009 -1.17219,0.009 -0.11918,-0.59443 -0.11919,-0.59442 -0.009,1.32303 -0.009,1.32302 0.24366,-0.62179 0.24366,-0.62178 z m -3.4527,-1.63425 -0.002,-0.26457 -1.32288,0.0101 -1.32287,0.0101 0.002,0.26457 0.002,0.26457 1.32287,-0.0101 1.32288,-0.0101 z m 4.49577,-0.2988 -0.002,-0.26459 -1.32288,0.0101 -1.32289,0.0101 0.002,0.26458 0.002,0.26457 1.32288,-0.0101 1.32289,-0.0101 z m -4.50382,-0.75949 -0.002,-0.26458 -0.99224,-0.004 -0.99225,-0.004 0.98817,-0.53133 0.98818,-0.53134 -0.002,-0.22741 -0.002,-0.22741 -0.5961,-0.10217 -0.59612,-0.10217 -0.79238,0.18285 -0.79238,0.18285 0.92632,0.0313 0.9263,0.0313 -0.85677,0.72702 -0.85677,0.72704 0.003,0.19841 0.003,0.19842 1.32288,-0.0101 1.32288,-0.0101 z m 4.43883,-1.17426 0.0745,-0.97372 -0.62082,-0.27717 -0.62082,-0.27717 -0.68349,0.26583 -0.68347,0.26583 -0.12657,0.69054 -0.12658,0.69056 0.63506,0.49175 0.63506,0.49175 0.7212,-0.19725 0.7212,-0.19723 z m -1.86341,0.60428 -0.46506,-0.26617 -0.003,-0.35131 -0.003,-0.35132 0.39095,-0.32951 0.39093,-0.32952 0.66614,0.16181 0.66615,0.16181 0.004,0.4712 0.004,0.4712 -0.31507,0.31991 -0.31507,0.31991 -0.27787,-0.006 -0.27786,-0.006 z m -2.92708,-2.17699 -0.46568,-0.34795 -0.003,-0.42069 -0.003,-0.4207 0.46094,-0.2732 0.46096,-0.2732 -0.36623,-0.006 -0.36622,-0.006 -1.02052,0.31424 -1.02052,0.31425 0.003,0.33293 0.003,0.33293 1.12749,0.38946 1.12746,0.38947 0.26468,0.0101 0.26467,0.0101 z m -1.39428,-0.67943 -0.16553,-0.26333 0.41249,-0.003 0.41248,-0.003 0.002,0.26457 0.002,0.26458 -0.24896,0.002 -0.24896,0.002 z m 6.21956,0.21725 -0.002,-0.26458 -0.9922,0.002 -0.99221,0.002 0.98779,-0.58263 0.98778,-0.58264 -0.003,-0.34484 -0.003,-0.34486 -1.32288,0.0101 -1.32288,0.0101 0.002,0.26457 0.002,0.26459 0.99225,0.004 0.99225,0.004 -0.98513,0.59111 -0.98513,0.59112 -4.8e-4,0.33074 -4.8e-4,0.33073 1.32288,-0.0101 1.32288,-0.0101 z m -4.55909,-2.80966 -0.0472,-0.99185 -0.10468,0.72842 -0.10468,0.72843 -1.17301,0.009 -1.17301,0.009 0.002,0.26457 0.002,0.26457 1.32287,-0.0101 1.32289,-0.0101 z m 42.24114,-104.37197 -0.16553,-0.26333 -0.39196,0.003 -0.39197,0.003 -0.82986,-0.58902 -0.82988,-0.589 -0.57304,-0.52483 -0.57304,-0.52482 -0.2984,-0.79149 -0.2984,-0.79151 -0.15645,-0.86795 -0.15646,-0.86795 0.27448,-1.38197 0.27446,-1.38198 0.3035,-0.27299 0.30348,-0.273 0.28527,-0.52525 0.28525,-0.52527 1.15102,-0.79229 1.15101,-0.79228 1.86092,-0.0222 1.86092,-0.0222 1.12833,0.50267 1.12834,0.50269 0.003,0.33663 0.003,0.33663 0.53132,0.27918 0.5313,0.27917 0.003,0.30056 0.003,0.30059 0.42372,0.4611 0.42371,0.4611 0.14604,1.53983 0.14601,1.53983 -0.522,1.22871 -0.522,1.22872 -1.12645,1.099 -1.12645,1.09901 -0.46024,0.003 -0.46024,0.003 -0.1615,0.26581 -0.1615,0.26583 -1.42394,0.0108 -1.42393,0.0109 z m 2.83226,-1.5876 0.992,-0.0291 -0.004,-0.52884 -0.004,-0.52914 -0.55963,0.005 -0.55965,0.005 0.14498,-1.39021 0.14499,-1.39021 0.155,-2.44864 0.155,-2.44865 -0.36487,-5.1e-4 -0.36487,-5.2e-4 -0.9934,-0.15644 -0.99341,-0.15644 0.003,0.44041 0.003,0.44039 -0.9367,0.56232 -0.93669,0.56232 0.1501,0.38246 0.15012,0.38245 0.004,0.50751 0.004,0.50751 0.79373,-0.006 0.79372,-0.006 0.0149,1.95601 0.0149,1.95602 -0.39571,0.1553 -0.39569,0.15532 0.004,0.51541 0.004,0.5154 0.28848,0.0937 0.28847,0.0937 0.70401,-0.0578 0.70402,-0.0578 z"
       style="fill:#000000;stroke-width:0.264583"
       id="path1"
       sodipodi:nodetypes="ccccccccccccccccccccccccccccccccccccccccccccccccccccccccccccccccccccccccccccccccccccccccccccccccccccccccccccccccccccccccccccccccccccccccccccccccccccccccccccccccccccccccccccccccccccccccccccccccccccccccccccccccccccccccccccccccccccccccccccccccccccccccccccccccccccccccccccccccccccccccccccccccccccccccccccccccccccccccccccccccccccccccccccccccccccccccccccccccccccccccccccccccccccccccccccccccccccccccccccccccccccccccccccccccccccccccccccccccccccccccccccccccccccccccccccccccccccccccccccccccccccccccccccccccccccccccccccccccccccccccccccccccccccccccccccccccccccccccccccccccccccccccccccccccccccccccccccccccccccccccccccccccccccccccccccccc" />
  </g>
</svg>
