<?xml version="1.0" encoding="UTF-8" standalone="no"?>
<!-- Created with Inkscape (http://www.inkscape.org/) -->

<svg
   width="36mm"
   height="36mm"
   viewBox="0 0 36 36"
   version="1.1"
   id="svg1"
   xml:space="preserve"
   xmlns="http://www.w3.org/2000/svg"
   xmlns:svg="http://www.w3.org/2000/svg"><defs
     id="defs1" /><g
     id="layer1"
     transform="translate(-162.3965,-24.203397)"><path
       d="m 181.34055,56.495903 c -0.54585,-0.10483 -0.84525,-0.35406 -0.97448,-0.81119 -0.89069,-3.15055 -1.07377,-3.99697 -0.90142,-4.16729 0.1095,-0.10821 0.93225,-0.19674 1.82834,-0.19674 h 1.62925 l -0.02,-3.57188 c -0.011,-1.96453 -0.11204,-4.97085 -0.22453,-6.68072 l -0.20455,-3.10886 h -2.47724 -2.47724 l -0.27947,-1.03785 c -0.28265,-1.0497 -0.77606,-4.45625 -0.79109,-5.4618 -0.007,-0.43807 0.5618,-0.81547 2.86403,-1.90178 l 2.8722,-1.35525 0.16607,-1.21164 c 0.21211,-1.5475 0.85368,-2.79072 1.43851,-2.7875 0.56778,0.003 7.04957,1.22403 8.12914,1.53119 l 0.79375,0.22584 -0.079,3.15512 c -0.0435,1.73532 -0.18868,3.98857 -0.3227,5.00721 -0.13403,1.01865 -0.37032,4.3524 -0.52511,7.40834 -0.15478,3.05593 -0.39652,6.50562 -0.53719,7.66597 -0.14067,1.16035 -0.25577,2.14262 -0.25577,2.18281 0,0.0402 0.75933,0.0731 1.6874,0.0731 2.23999,0 2.46553,0.26659 2.01634,2.38327 -0.5522,2.60211 -0.30124,2.49201 -5.86179,2.57175 -2.66938,0.0383 -5.27012,0.10776 -5.77945,0.15441 -0.50932,0.0466 -1.28061,0.0167 -1.71398,-0.0665 z m 11.8933,-1.17349 c 0.2201,-0.16366 0.50641,-0.8721 0.63625,-1.57431 0.27477,-1.486 0.21241,-1.53877 -1.88599,-1.59587 l -1.38895,-0.0378 -0.0794,-1.2262 c -0.0437,-0.67441 0.21948,-5.43691 0.58477,-10.58334 0.36529,-5.14642 0.69566,-10.3649 0.73415,-11.59662 l 0.07,-2.23948 -3.95012,-0.75824 c -4.51471,-0.86661 -4.4648,-0.88089 -4.79025,1.37033 -0.0971,0.67158 -0.29586,1.37075 -0.44172,1.55371 -0.14587,0.18296 -1.44054,0.89154 -2.87705,1.57463 -2.40166,1.14203 -2.61183,1.30246 -2.61183,1.9936 0,1.22812 0.8176,4.81247 1.14871,5.03596 0.16858,0.11378 1.31853,0.1736 2.55546,0.13293 l 2.24895,-0.0739 0.20027,3.70417 c 0.11015,2.03729 0.28874,5.23376 0.39688,7.10326 0.10813,1.86951 0.1286,3.50896 0.0455,3.64323 -0.0831,0.13427 -0.94909,0.26778 -1.92437,0.29668 -1.47781,0.0438 -1.74509,0.12008 -1.60421,0.45782 0.093,0.22289 0.2775,0.88151 0.41007,1.46359 0.13257,0.58209 0.29576,1.21264 0.36264,1.40123 0.16106,0.45418 11.5456,0.41174 12.16027,-0.0453 z m -28.04354,-9.71242 c -0.28838,-0.11233 -0.90102,-0.14201 -1.36144,-0.0659 -1.20941,0.19982 -1.41184,-0.3874 -1.41184,-4.09557 0,-2.42816 0.0883,-3.23326 0.38115,-3.47633 0.29087,-0.2414 1.71312,-0.25575 6.00495,-0.0606 3.09309,0.14065 5.78059,0.19557 5.97222,0.12203 0.19163,-0.0735 0.5255,0.0133 0.74193,0.19288 0.30915,0.25657 0.39263,1.01444 0.38945,3.53533 -0.002,1.76481 -0.0918,3.34674 -0.19916,3.51539 -0.22926,0.36029 -9.67906,0.65931 -10.51726,0.33279 z m 9.86701,-3.72451 0.0726,-3.00034 -2.71842,-0.0649 c -1.49512,-0.0357 -4.18081,-0.1372 -5.96818,-0.22558 l -3.24978,-0.16068 0.0748,3.13599 0.0748,3.136 1.32292,0.13229 c 0.7276,0.0728 3.34698,0.11322 5.82083,0.0899 l 4.49792,-0.0424 z"
       style="fill:#000000"
       id="path1-02" /><path
       style="fill:#000000;fill-opacity:1;stroke-width:0.562111"
       d="m 615.16905,142.69386 c -2.56258,3.34658 -0.67449,8.05785 -1.25267,11.99427 0.41523,5.23452 -0.90379,10.9626 1.27024,15.87085 3.64984,3.12071 9.09534,1.73473 13.52229,2.21798 10.97894,0.0406 22.0385,0.43531 32.96756,0.08 3.9527,-1.35775 2.45252,-6.70708 3.06821,-10.03211 -0.1033,-5.74877 0.81404,-11.73011 -0.41523,-17.32354 -2.89087,-2.66165 -7.57193,-1.3055 -11.27775,-1.93735 -12.22305,-0.37785 -24.38391,-0.98857 -36.52374,-1.26933 -0.45297,0.13309 -0.90594,0.26618 -1.35891,0.39926 z"
       id="path22"
       transform="scale(0.26458333)" /><path
       style="fill:#000000;fill-opacity:1;stroke-width:0.562111"
       d="m 697.15602,92.234517 c -3.89654,-0.434263 -6.92121,2.74179 -7.34038,6.441222 -1.19393,3.029691 -0.24084,7.753551 -4.14776,8.847761 -5.70475,3.46611 -12.41928,5.51561 -17.44631,9.96759 -3.06695,4.58297 -0.37123,10.35404 0.21848,15.29447 1.23009,3.7989 1.19018,9.62967 5.64966,11.15219 5.06551,0.64525 10.19232,0.27234 15.28129,0.54674 0.78005,16.18267 1.97713,32.45433 2.47132,48.56003 -4.02355,0.89533 -8.64754,-0.1055 -12.27313,2.064 -2.24989,3.46241 0.33028,7.78376 0.87643,11.45157 0.49929,3.24154 2.47861,6.5154 6.15106,6.48109 14.16108,0.62609 28.38684,0.24849 42.54368,-0.44683 5.32731,-0.98902 6.79198,-7.56515 6.8145,-12.20286 0.29336,-4.55374 -4.56829,-6.66444 -8.45802,-6.32595 -3.69022,0.68367 -5.08956,-0.73328 -4.09055,-4.53531 0.90265,-29.55656 4.10297,-59.07441 4.90847,-88.68509 0.41633,-4.041167 -4.17726,-4.447784 -7.0915,-4.797651 -7.99762,-1.321403 -15.94075,-3.489987 -24.06724,-3.812972 z"
       id="path23"
       transform="scale(0.26458333)" /></g></svg>
