<?xml version="1.0" encoding="UTF-8" standalone="no"?>
<!-- Created with Inkscape (http://www.inkscape.org/) -->

<svg
   width="36mm"
   height="36mm"
   viewBox="0 0 36 36"
   version="1.1"
   id="svg1"
   xml:space="preserve"
   xmlns="http://www.w3.org/2000/svg"
   xmlns:svg="http://www.w3.org/2000/svg"><defs
     id="defs1" /><g
     id="layer1"
     transform="translate(-103.05807,-26.493179)"><path
       d="m 122.27793,58.821373 c -0.25949,-0.31365 -0.47065,-1.11739 -1.04956,-3.99491 l -0.14638,-0.72761 h 1.92194 1.92194 l -0.17588,-4.43177 c -0.0967,-2.43747 -0.24953,-5.57521 -0.33956,-6.97275 l -0.16369,-2.54098 -2.47137,0.12927 -2.47137,0.12927 -0.28656,-0.75372 c -0.25524,-0.67132 -1.04484,-5.286 -1.04883,-6.12967 -8.6e-4,-0.18136 1.36766,-0.98297 3.04115,-1.78135 2.43626,-1.1623 3.04271,-1.56102 3.04271,-2.0005 0,-1.15286 0.61365,-2.92647 1.10316,-3.18845 0.50741,-0.27156 4.90671,0.37935 8.02496,1.18735 1.22194,0.31663 1.3198,0.40144 1.28201,1.11107 -0.17454,3.27807 -1.16184,18.68662 -1.24442,19.4214 -0.0572,0.50932 -0.18989,2.01277 -0.29479,3.34099 l -0.19071,2.41495 1.74457,0.11109 c 2.29343,0.14603 2.43948,0.31425 2.01391,2.31964 -0.56611,2.66762 -0.0904,2.501 -7.4634,2.61435 -5.18625,0.0797 -6.51259,0.0291 -6.74983,-0.25767 z m 7.31381,-0.52937 c 5.62334,-0.0857 6.1024,-0.18534 6.1024,-1.26855 0,-0.26246 0.0744,-0.84927 0.16536,-1.30402 l 0.16537,-0.82683 h -1.92541 -1.92541 l 0.17663,-3.50572 c 0.37695,-7.48156 0.85527,-14.56319 1.0946,-16.20573 0.0636,-0.43657 0.13466,-2.09987 0.1579,-3.69624 l 0.0422,-2.90248 -3.89694,-0.74594 c -2.92308,-0.55954 -3.98625,-0.67182 -4.25434,-0.44932 -0.19658,0.16314 -0.438,0.85243 -0.53649,1.53176 -0.26557,1.83168 -0.46387,2.05938 -2.6965,3.0963 -3.54322,1.64561 -3.38061,1.49241 -3.27865,3.08883 0.0492,0.77 0.23816,2.05485 0.41995,2.85521 l 0.33052,1.45521 h 2.53385 c 1.39362,0 2.58948,0.0595 2.65746,0.13229 0.19604,0.20981 0.7739,14.84664 0.59328,15.02726 -0.0894,0.0894 -0.93907,0.21195 -1.88822,0.27238 -1.47111,0.0937 -1.69867,0.1735 -1.54239,0.54106 0.10084,0.23715 0.30119,0.99034 0.44522,1.67377 0.20128,0.95502 0.3922,1.26433 0.82494,1.33649 0.30968,0.0516 0.62567,0.0675 0.7022,0.0352 0.0765,-0.0323 2.56612,-0.0957 5.53242,-0.14093 z m -22.0621,-7.57642 c -0.2721,-3.1024 -0.1692,-2.96673 -2.24993,-2.96673 h -1.80377 l -0.13378,-1.38906 c -0.0736,-0.76398 -0.11706,-2.16297 -0.0966,-3.10885 l 0.0371,-1.71979 1.96381,-0.1323 1.96381,-0.13229 -0.0832,-1.85208 c -0.17348,-3.86307 -0.20404,-3.65908 0.60687,-4.05159 0.97376,-0.47133 6.05685,-0.551 6.5962,-0.10338 0.30171,0.25039 0.3552,0.86129 0.25593,2.92284 l -0.1255,2.60628 2.34853,-0.0256 2.34852,-0.0256 0.0753,2.70572 c 0.0414,1.48814 -0.026,3.09549 -0.14985,3.57187 l -0.22518,0.86616 -1.9975,-0.0916 -1.99749,-0.0916 -0.12628,2.18147 c -0.0965,1.66721 -0.2349,2.26089 -0.58703,2.51837 -0.30635,0.22402 -1.46265,0.34051 -3.45089,0.34767 l -2.99016,0.0108 z m 6.2056,0.86789 c 0.16581,-0.19978 0.36786,-1.24115 0.44901,-2.31417 0.13539,-1.79021 0.20466,-1.97512 0.8407,-2.24439 0.43172,-0.18277 1.16279,-0.21786 1.93837,-0.093 1.53329,0.24678 1.5329,0.24756 1.5329,-3.07893 v -2.52971 l -2.10566,0.14433 c -1.43864,0.0986 -2.17361,0.0477 -2.32015,-0.16063 -0.11796,-0.16773 -0.21216,-1.45873 -0.20933,-2.8689 l 0.005,-2.56394 -1.19073,-0.13592 c -0.65491,-0.0748 -2.02418,-0.0521 -3.04283,0.0504 l -1.85208,0.18632 0.0966,2.937 0.0966,2.937 -1.02265,0.16894 c -0.56246,0.0929 -1.46914,0.17025 -2.01484,0.17185 l -0.99219,0.003 v 2.34818 2.34818 l 0.7661,0.15322 c 0.42135,0.0843 1.17101,0.0875 1.66591,0.007 1.22459,-0.19872 1.49194,0.20924 1.68499,2.57125 0.0883,1.08058 0.1947,2.08376 0.2364,2.22928 0.11978,0.41794 5.07108,0.17535 5.43771,-0.26643 z"
       style="fill:#000000"
       id="path1-7" /><path
       style="fill:#000000;fill-opacity:1;stroke-width:0.562111"
       d="m 421.20232,131.81943 c -4.96947,0.15526 -9.93765,0.34248 -14.75542,1.32952 -3.61204,2.56449 -1.54153,7.78593 -1.95913,11.4732 0.10088,3.63276 0.31332,7.35164 0.34855,10.92561 -4.69895,0.89333 -9.74614,0.0706 -14.21855,1.75989 -2.07424,4.0046 -0.50196,8.91413 -0.99177,13.3128 -0.23911,3.77365 -0.14656,9.55099 4.75528,10.11252 3.23948,0.55585 6.73747,-0.31579 9.73813,0.49075 1.72782,5.2701 0.74409,11.13461 2.83471,16.25291 2.99184,3.7752 8.52907,1.87709 12.6739,2.19117 4.61144,-0.49666 11.45124,0.33865 13.63773,-4.86888 1.46017,-4.6094 0.7543,-9.82756 2.76993,-14.20428 4.23499,-1.09196 10.06394,2.14039 13.33587,-2.09035 2.49358,-5.3907 0.84717,-11.67455 1.35038,-17.41886 0.0911,-2.94442 0.6953,-8.22287 -3.66437,-7.91519 -4.39256,0.11514 -8.78391,0.38852 -13.1792,0.3267 -0.78004,-6.59584 0.11927,-13.47042 -1.36351,-19.88867 -2.76692,-2.46477 -7.72278,-1.39517 -11.31253,-1.78884 z"
       id="path20"
       transform="scale(0.26458333)" /><path
       style="fill:#000000;fill-opacity:1;stroke-width:0.562111"
       d="m 475.98619,100.15567 c -5.05143,-0.441479 -6.16136,5.31496 -6.88147,9.10137 0.0351,3.68041 -2.61551,6.30497 -5.83877,7.61363 -5.18024,3.20343 -12.11319,4.48985 -15.85081,9.713 -2.15664,5.33776 0.12055,11.23491 0.64664,16.71402 0.91174,3.36592 0.57181,9.38371 5.45424,8.94328 5.24307,0.15659 10.88696,-0.2953 15.84889,0.22396 1.1704,17.0362 1.50941,34.15257 1.89054,51.26958 -3.9957,0.82454 -9.00478,-0.24016 -12.18639,2.75676 -1.53314,3.79039 0.83279,7.94024 1.52258,11.73285 0.68673,4.33214 5.24013,6.2658 9.21461,5.70391 13.58439,-0.69267 27.28692,-0.003 40.81344,-1.78768 3.67575,-0.2244 5.19392,-3.8153 5.34441,-7.04209 0.15156,-3.28433 2.8898,-8.34059 -1.05941,-10.32955 -3.85096,-1.08676 -7.95523,-0.432 -11.90534,-0.63128 0.79592,-26.20558 3.11849,-52.56505 4.85778,-78.84831 0.0723,-6.16551 0.64758,-12.4938 -0.17032,-18.55808 -1.79941,-3.11761 -6.43178,-2.14512 -9.49512,-3.22076 -7.37102,-1.20922 -14.72046,-3.0793 -22.2055,-3.35461 z"
       id="path21"
       transform="scale(0.26458333)" /></g></svg>
