<?xml version="1.0" encoding="UTF-8" standalone="no"?>
<!-- Created with Inkscape (http://www.inkscape.org/) -->

<svg
   width="36mm"
   height="36mm"
   viewBox="0 0 36 36"
   version="1.1"
   id="svg1"
   xml:space="preserve"
   xmlns="http://www.w3.org/2000/svg"
   xmlns:svg="http://www.w3.org/2000/svg"><defs
     id="defs1" /><g
     id="layer1"
     transform="translate(-30.58618,-39.756862)"><path
       d="m 53.280993,71.89627 c -0.288527,-0.0731 -1.181496,-0.55495 -1.984375,-1.07084 -0.802878,-0.51589 -2.471811,-1.44388 -3.708738,-2.06221 -2.900477,-1.44992 -3.280518,-1.74427 -3.077597,-2.38361 0.225186,-0.7095 5.08134,-5.66618 5.551263,-5.66618 0.210458,0 1.198496,0.63667 2.195639,1.41482 l 1.812987,1.41482 1.561289,-0.28841 c 1.476887,-0.27282 1.610672,-0.36279 2.474783,-1.66423 l 0.913493,-1.37582 -1.151865,-1.48486 -1.151866,-1.48486 -1.719792,0.0806 -1.719792,0.0806 -0.199669,-2.38125 c -0.109818,-1.30969 -0.13714,-2.54618 -0.06072,-2.74777 0.106648,-0.28131 0.541728,-0.33418 1.871431,-0.22745 l 1.732478,0.13907 0.421285,-0.88344 c 0.415793,-0.87193 0.410815,-0.89311 -0.381953,-1.62464 -0.44178,-0.40765 -1.160117,-0.94731 -1.596306,-1.19925 l -0.79307,-0.45806 -3.141935,1.58254 c -1.728064,0.8704 -3.285587,1.58254 -3.461161,1.58254 -0.444568,0 -3.309511,-5.95688 -3.206047,-6.66612 0.05986,-0.41031 0.353814,-0.64748 1.010455,-0.81526 0.509322,-0.13014 1.112448,-0.40365 1.340278,-0.60781 0.227829,-0.20415 0.823142,-0.44043 1.322916,-0.52506 0.838991,-0.14206 2.900301,-0.89921 4.030671,-1.48052 0.469,-0.24119 1.815943,-0.56793 4.154052,-1.00769 l 1.190625,-0.22394 2.229877,2.28976 c 5.085336,5.22191 5.839914,6.04477 5.839914,6.36843 0,0.18663 -0.716708,1.29046 -1.592683,2.45297 -0.875976,1.16251 -1.773845,2.46398 -1.995265,2.89216 -0.392169,0.75837 -0.38024,0.79712 0.461184,1.49819 0.475071,0.39582 1.063378,0.93995 1.307348,1.20916 0.663572,0.73223 0.796893,0.85846 2.017854,1.91049 0.618463,0.5329 1.124479,1.14674 1.124479,1.3641 0,0.50348 -1.21874,2.85424 -3.398247,6.55468 -0.942807,1.60073 -1.745383,2.95089 -1.783502,3.00036 -0.03812,0.0495 -1.596492,0.67321 -3.46305,1.38611 -3.294886,1.25842 -3.873501,1.38722 -4.976672,1.10783 z m 3.14967,-1.21887 c 0.884543,-0.34065 2.326758,-0.89395 3.204925,-1.22956 l 1.596666,-0.61019 2.43823,-4.28583 c 1.341026,-2.3572 2.43823,-4.41094 2.43823,-4.56386 0,-0.15293 -0.446485,-0.6604 -0.992188,-1.12772 -2.389448,-2.04625 -4.298599,-3.95008 -4.288004,-4.27605 0.02043,-0.62864 3.16606,-5.20487 3.758837,-5.46833 0.594841,-0.26437 0.06749,-0.88446 -5.578821,-6.55994 -1.067439,-1.07295 -2.079471,-1.95141 -2.248957,-1.95213 -0.701559,-0.003 -8.131868,2.52363 -10.161005,3.45516 -0.616877,0.28319 -1.234645,0.5149 -1.372818,0.5149 -0.188709,0 2.103552,5.26386 2.51763,5.78139 0.04086,0.0511 0.528601,-0.15526 1.083871,-0.45851 0.555269,-0.30325 1.545361,-0.78368 2.200205,-1.06763 0.654844,-0.28395 1.681235,-0.81932 2.280869,-1.18972 l 1.090243,-0.67344 0.603886,0.52374 c 0.332138,0.28806 0.709331,0.52375 0.838209,0.52375 0.128877,0 0.729907,0.4762 1.335622,1.05823 1.096549,1.05366 1.099789,1.06251 0.75099,2.05052 -0.604219,1.71151 -0.935731,1.92519 -2.700595,1.74073 l -1.553391,-0.16236 v 1.19524 c 0,0.65739 0.0754,1.57223 0.16755,2.03299 0.164395,0.82198 0.189234,0.8345 1.319527,0.665 1.296195,-0.19438 2.481674,0.018 2.481674,0.44461 0,0.156 0.416718,0.77047 0.92604,1.3655 1.166004,1.36222 1.169885,2.08681 0.02032,3.79382 -0.839238,1.2462 -1.017276,1.36733 -2.425377,1.65011 -2.260158,0.45391 -2.404618,0.41848 -4.23598,-1.03878 l -1.68899,-1.34396 -0.986465,0.81312 c -0.542556,0.44722 -1.674747,1.60912 -2.515981,2.582 l -1.529517,1.76888 2.579955,1.35413 c 1.418976,0.74477 3.234799,1.78634 4.035164,2.31459 1.72932,1.14139 2.472441,1.20259 4.609449,0.3796 z M 35.036607,64.88257 c -0.05522,-0.18273 -0.200575,-1.28474 -0.323004,-2.44891 L 34.491005,60.317 32.782098,60.3755 c -1.11433,0.0381 -1.780326,-0.0539 -1.914178,-0.26458 -0.34079,-0.53637 -0.253004,-5.33699 0.104126,-5.69412 0.180455,-0.18046 1.044627,-0.3175 2.002071,-0.3175 h 1.684571 l -0.183577,-2.74053 -0.183577,-2.74054 0.866822,-0.30217 c 1.070453,-0.37317 5.001493,-0.39716 5.950555,-0.0363 0.579016,0.22014 0.689085,0.41346 0.640221,1.12448 -0.03245,0.47224 -0.04189,1.63254 -0.02097,2.57842 l 0.03804,1.71979 h 2.16995 2.169949 l -0.0662,2.91042 c -0.09124,4.01128 -0.03097,3.8904 -1.846693,3.70358 -0.825065,-0.0849 -1.6653,-0.0428 -1.867189,0.0935 -0.222568,0.15027 -0.434796,0.98669 -0.539105,2.12469 -0.09462,1.03228 -0.306858,2.01169 -0.471642,2.17647 -0.445711,0.44572 -6.148716,0.60149 -6.278663,0.17151 z m 3.55544,-0.46497 c 0.945885,-0.004 1.876447,-0.107 2.067915,-0.22842 0.213361,-0.13529 0.408021,-1.01272 0.502851,-2.2666 0.179664,-2.37557 0.380101,-2.55273 2.641583,-2.33482 1.278426,0.12318 1.387066,0.088 1.533658,-0.49603 0.08677,-0.34572 0.122465,-1.58069 0.07932,-2.74437 l -0.07845,-2.11578 -2.182813,0.0805 -2.182812,0.0805 v -2.79244 -2.79245 l -0.992188,-0.0226 c -1.851783,-0.0421 -3.900747,0.0483 -4.390511,0.19373 -0.439921,0.13062 -0.479025,0.40355 -0.397605,2.77508 0.105462,3.07176 0.06486,3.12902 -2.223343,3.13512 l -1.521354,0.004 v 2.33783 2.33783 l 1.653646,0.0587 c 0.909505,0.0323 1.75823,0.16234 1.886055,0.28905 0.127825,0.12672 0.285701,1.10212 0.350836,2.16757 0.154262,2.52337 0.218409,2.69373 0.941324,2.49997 0.325654,-0.0873 1.366004,-0.16215 2.31189,-0.16636 z"
       style="fill:#000000"
       id="path1-0" /><path
       style="fill:#000000;fill-opacity:1;stroke-width:0.397473"
       d="m 145.30649,181.33054 c -4.44756,0.40983 -9.39185,-0.47094 -13.43566,1.79251 -2.78315,2.19676 -1.47599,6.21807 -1.89316,9.2668 -0.20169,3.79246 0.35285,7.97925 -0.53049,11.54306 -4.08371,0.72572 -8.40597,-0.16195 -12.35659,1.11401 -2.34778,2.55602 -0.84477,6.40683 -1.33264,9.55123 0.21855,4.05616 -0.68661,8.26531 0.35915,12.20884 2.15155,2.28869 5.6119,1.04946 8.40437,1.66441 1.67212,0.27112 3.76441,0.0953 5.21217,0.69092 1.15515,5.26089 0.51394,10.87993 2.31496,15.97653 2.15733,3.54198 6.77308,1.43388 10.05165,1.60995 4.27183,-0.5541 8.84051,0.0632 12.92258,-1.41199 3.49214,-2.8151 3.09394,-7.92665 3.7456,-11.95809 0.30464,-1.65209 0.0319,-3.86366 1.16302,-5.1635 4.00517,-0.38486 8.36805,1.18358 12.11826,-0.6622 3.41303,-2.7718 2.52955,-7.79148 2.77616,-11.68582 -0.30108,-4.24594 0.24373,-8.69208 -0.99763,-12.77349 -2.61451,-2.36557 -6.48494,-0.62697 -9.66588,-0.98566 -1.86322,-0.45629 -5.81205,1.24325 -6.34713,-0.5856 -0.15225,-6.04583 0.30561,-12.18227 -0.23103,-18.17102 -1.033,-3.4353 -5.34646,-1.87733 -8.00352,-2.11931 -1.42473,0.0328 -2.84946,0.0656 -4.27419,0.0984 z"
       id="path18"
       transform="scale(0.26458333)" /><path
       style="fill:#000000;fill-opacity:1;stroke-width:0.397473"
       d="m 213.75405,150.33933 c -15.06318,4.20277 -29.80905,9.51365 -44.24289,15.51928 -3.0364,1.70653 -1.15645,5.22716 -0.1838,7.58271 2.66008,6.05984 4.89396,12.39887 8.34597,18.0566 1.71634,2.53478 4.9145,1.62893 7.08362,0.31683 6.94232,-3.29836 13.92498,-6.56309 20.54926,-10.47334 2.96674,2.35779 6.50387,3.90558 9.00299,6.85481 1.0901,1.15971 2.96528,2.30738 1.68762,4.0718 -0.88982,1.68401 -1.32058,4.8699 -3.90098,4.40636 -3.57369,0.38399 -7.15637,-0.90717 -10.67043,-0.25463 -2.87706,2.20207 -1.05322,6.27637 -1.39425,9.3574 0.40575,3.66084 -0.35798,8.47432 3.02218,10.93155 3.88645,1.59549 8.4155,-1.12216 12.23858,0.59776 1.52528,3.41457 4.76988,5.83216 6.03274,9.3375 0.10148,3.88639 -2.5919,7.30986 -5.1423,10.00125 -3.25007,1.86221 -7.20389,2.19455 -10.88081,2.47333 -4.49068,-1.10784 -7.65956,-4.96221 -11.3929,-7.48882 -1.63474,-1.95948 -4.53082,-2.83119 -6.59817,-1.00172 -7.16038,5.3106 -12.89374,12.2886 -18.55389,19.10507 -1.79893,2.4186 0.55015,5.01916 2.82458,5.90536 9.27379,4.75694 18.23259,10.08182 27.27309,15.2554 5.5799,2.76708 12.08618,0.57602 17.47542,-1.6182 5.66907,-2.32198 11.64148,-4.11708 17.0264,-7.01666 3.91254,-5.24534 6.67694,-11.31914 10.05165,-16.93408 3.12759,-5.98825 7.02568,-11.67144 9.33822,-18.03504 0.24842,-3.78075 -3.71792,-5.89217 -5.95686,-8.34456 -4.66163,-4.1478 -9.28796,-8.35765 -13.4929,-12.97534 3.90233,-7.10899 8.75628,-13.72905 14.22676,-19.67675 1.74885,-2.95126 -1.5625,-5.59032 -3.23494,-7.79155 -8.44961,-8.98157 -16.90309,-18.01986 -26.08595,-26.25632 -1.26141,-0.98842 -2.71558,-2.31873 -4.44801,-1.906 z"
       id="path19"
       transform="scale(0.26458333)" /></g></svg>
